# xmcd CD database file
#
# Track frame offsets:
#	151
#	17655
#	34573
#	54355
#	69139
#	86538
#	99367
#	114573
#	128715
#	143868
#	156719
#	172265
#	188770
#	205600
#	218363
#
# Disc length: 3160 seconds
#
# Revision: 0
# Processed by: cddbd v1.5.1PL2 Copyright (c) Steve Scherf et al.
# Submitted via: CDex 1.51
#
DISCID=c30c560f
DTITLE=Wil Maring - The Calling
DYEAR=2006
DGENRE=Country
TTITLE0=The Open Road
TTITLE1=Back in the Highlife Again
TTITLE2=Keeper of the Farm
TTITLE3=Black Snake of the Sky
TTITLE4=Going Down
TTITLE5=Make You Smile
TTITLE6=Window Seat
TTITLE7=The Rain Came Down
TTITLE8=The Calling
TTITLE9=All Gone
TTITLE10=Real But Not Right
TTITLE11=Save Me
TTITLE12=You Leave
TTITLE13=High Clover
TTITLE14=Rows
EXTD=YEAR: 2006
EXTT0=
EXTT1=
EXTT2=
EXTT3=
EXTT4=
EXTT5=
EXTT6=
EXTT7=
EXTT8=
EXTT9=
EXTT10=
EXTT11=
EXTT12=
EXTT13=
EXTT14=
PLAYORDER=
